<svg data-v-423bf9ae="" xmlns="http://www.w3.org/2000/svg" viewBox="0 0 364 107" class="iconLeft"><!----><!----><!----><g data-v-423bf9ae="" id="a9061f81-de85-4914-8740-0f0ddfcb1c66" fill="#262C4C" transform="matrix(4.373177757451571,0,0,4.373177757451571,96.09533334248269,23.12165403366089)"><path d="M0.66 10.16C1.26 10.43 2.17 10.64 3.08 10.64C4.49 10.64 5.85 10.12 5.85 8.47C5.85 6.22 2.10 6.59 2.10 4.90C2.10 4.12 2.74 3.89 3.46 3.89C3.91 3.89 4.10 3.93 4.42 4.03L4.80 5.46L5.53 5.33L5.53 3.58C5.25 3.30 4.52 3.12 3.72 3.12C2.37 3.12 0.80 3.65 0.80 5.11C0.80 7.46 4.59 7.06 4.54 8.68C4.52 9.52 3.93 9.87 3.09 9.87C2.55 9.87 2.25 9.76 1.76 9.55L1.39 8.16L0.66 8.29ZM9.21 0L6.72 0.34L6.79 0.91L7.95 1.13L7.95 9.66L6.72 10.08L6.72 10.50L10.12 10.50L10.26 9.83L9.21 9.63L9.21 4.96C9.58 4.52 10.42 4.24 11.16 4.24C12.05 4.24 12.50 4.55 12.50 5.95L12.50 9.66L11.42 10.08L11.42 10.50L14.74 10.50L14.88 9.87L13.76 9.63L13.75 5.67C13.75 3.88 12.98 3.09 11.63 3.09C10.86 3.09 9.84 3.50 9.21 4.27ZM22.19 10.50L22.33 9.86L21.32 9.62L21.32 5.32C21.32 3.64 20.16 3.09 18.70 3.09C17.75 3.09 16.93 3.39 16.20 3.71L16.20 5.53L16.93 5.66L17.32 4.06C17.75 3.91 18.20 3.86 18.63 3.86C19.42 3.86 20.06 4.26 20.06 5.31L20.06 6.45C19.05 6.57 18.26 6.72 17.35 6.96C16.13 7.28 15.72 7.84 15.72 8.78C15.72 9.95 16.59 10.61 17.58 10.61C18.40 10.61 19.50 10.04 20.06 9.37L20.06 10.50ZM17.12 8.67C17.12 8.09 17.39 7.59 18.27 7.35C18.87 7.18 19.46 7.11 20.06 7.04L20.06 8.64C19.73 9.13 18.84 9.73 18.17 9.73C17.61 9.73 17.12 9.55 17.12 8.67ZM28.67 3.32C28.38 3.19 28.07 3.12 27.75 3.12C26.92 3.12 26.21 3.60 25.58 4.27L25.58 3.12L23.10 3.46L23.17 4.07L24.33 4.30L24.33 9.66L23.11 10.08L23.11 10.50L26.73 10.50L26.87 9.83L25.58 9.63L25.58 4.96C25.96 4.52 26.68 4.24 27.29 4.24C27.36 4.24 27.50 4.24 27.57 4.26L27.94 5.32L28.67 5.19ZM31.58 7.99L32.69 6.90L34.99 10.50L36.79 10.50L36.93 9.83L35.94 9.65L33.61 6.01L35.27 4.38L36.61 3.88L36.61 3.46L33.53 3.46L33.39 4.13L34.29 4.27L31.58 7.01L31.58 0L29.12 0.34L29.19 0.91L30.32 1.12L30.32 9.66L29.09 10.08L29.09 10.50L32.49 10.50L32.63 9.83L31.58 9.63ZM38.09 10.14C38.82 10.51 39.80 10.68 40.59 10.68C42.78 10.68 44.53 9.41 44.53 6.57C44.53 4.44 43.15 3.11 41.57 3.11C40.84 3.11 40.07 3.39 39.35 4.02L39.35 0L36.86 0.34L36.93 0.95L38.09 1.18ZM39.35 4.80C40.00 4.40 40.59 4.19 41.13 4.19C42.36 4.19 43.15 5.24 43.15 6.96C43.15 8.69 42.27 9.91 40.85 9.91C40.39 9.91 39.89 9.77 39.35 9.51ZM49.35 9.84C47.60 9.84 47.05 8.27 47.05 6.73C47.05 5.28 47.66 3.85 49.15 3.85C50.90 3.85 51.45 5.42 51.45 6.96C51.45 8.41 50.85 9.84 49.35 9.84ZM49.14 3.08C46.90 3.08 45.65 5.00 45.65 6.89C45.65 8.76 46.84 10.61 49.36 10.61C51.60 10.61 52.85 8.69 52.85 6.80C52.85 4.93 51.66 3.08 49.14 3.08ZM56.49 11.09C56.04 11.93 55.87 12.52 54.87 12.52C54.61 12.52 54.33 12.49 54.04 12.42L53.65 13.58C53.97 13.68 54.26 13.72 54.54 13.72C55.64 13.72 56.32 13.05 56.73 12.31C57.13 11.59 57.53 10.57 58.03 9.30C58.58 7.94 59.37 6.23 60.26 4.05L61.17 3.64L61.17 3.22L58.67 3.22L58.53 3.89L59.39 4.03L57.46 8.68L57.37 8.29L55.64 3.99L56.48 3.64L56.48 3.22L53.48 3.22L53.34 3.85L54.31 4.09L56.83 10.26C56.71 10.56 56.59 10.85 56.49 11.09Z"></path></g><defs data-v-423bf9ae=""><linearGradient data-v-423bf9ae="" gradientTransform="rotate(25)" id="b918639d-bd88-4758-9aaa-3afb885347b4" x1="0%" y1="0%" x2="100%" y2="0%"><stop data-v-423bf9ae="" offset="0%" style="stop-color: rgb(1, 100, 139); stop-opacity: 1;"></stop><stop data-v-423bf9ae="" offset="100%" style="stop-color: rgb(91, 208, 164); stop-opacity: 1;"></stop></linearGradient></defs><g data-v-423bf9ae="" id="85e521dc-86a6-46b4-a583-57336573f0e8" transform="matrix(1.086499532063802,0,0,1.086499532063802,-14.682260003455056,-0.20815502493253746)" stroke="none" fill="url(#b918639d-bd88-4758-9aaa-3afb885347b4)"><path clip-rule="evenodd" d="M42.907 29.392c.293.537-.19.955.121 1.494 1.173-2.141 1.445-4.529 2.424-6.698.137 1.184-.03 2.398.385 3.659 2.606-1.977 5.463-3.48 8.146-5.257 1.09-.721 1.699-1.899 2.287-3.038 2.071-4.013 3.613-8.264 5.537-12.344 1.039-2.204 2.15-4.36 3.839-6.208-.663 1.919-1.345 3.832-1.985 5.758-1.185 3.559-2.266 7.143-2.862 10.861-.407 2.539-.13 5.014.46 7.479.069.29.16.574.283 1.005-1.623-.346-3.122-.575-4.561-1.007-.781-.234-1.375-.079-2.01.268-5.092 2.78-8.634 7.001-11.282 12.075-2.765 5.298-3.261 10.772-1.427 16.46.252.781.232 1.591.096 2.374-.211 1.214-.67 1.402-2.723 1.266-.06.458.295.697.537.971.584.658 1.195 1.417 2.188 1.209.985-.206 1.115-1.183 1.325-1.972.794-2.992.901-6.061.914-9.134.005-1.267.001-2.534.143-3.855 1.241 1.159 2.015 2.6 2.687 4.094 2.082 4.635 3.375 9.53 4.555 14.445.571 2.381 2.051 3.992 3.743 5.604.146-.468-.266-.613-.401-.885-.159-.319-.414-.592-.569-.914-.295-.612-.672-1.319-.164-1.908.545-.631 1.289-.247 1.878.049 2.398 1.204 4.603 2.731 6.756 4.318 8.988 6.625 16.445 14.674 22.259 24.212 1.508 2.474 1.314 1.845-.828 3.065-3.646 2.079-7.603 2.238-11.639 1.651-3.001-.437-5.977-1.007-8.901-1.833-1.052-.297-2.019-.644-2.833-1.432-.56-.543-1.286-.91-2.369-1.037.905.656 1.86.794 2.43 1.558-5.948 1.112-21.983-6.289-25.493-11.786.987-.043 1.911-.216 2.824-.449.915-.233 1.818-.051 2.749.048-1.025-.895-2.224-1.368-3.584-1.268-6.025.445-12.051.735-18.068-.072-1.999-.269-3.945-.768-6-1.74 4.426-1.377 8.53-2.882 12.477-4.79 1.853-.896 3.626-1.886 4.698-3.742.919.466 1.449 1.305 2.298 1.784-1.18-1.856-2.99-3.247-3.931-5.318-.24 1.279.229 2.601-.353 3.844-2.013-2.18-2.73-11.485-1.188-19.293 1.931-9.786 6.815-17.777 15.132-23.571zm-4.114 26.77c-3.339-6.651-2.363-13.1.732-19.481-.188.06-.287.121-.34.209-2.416 4.049-3.813 8.397-3.214 13.132.285 2.243.705 4.602 2.822 6.14zm29.901 37.493c4.174 3.498 13.055 4.806 16.021 2.334-5.585.734-10.751-.212-16.021-2.334zm-4.02-2.352c-2.171-1.574-3.744-4.299-6.952-3.583.251.524 1.171.2 1.399.819 1.001 2.707 3.348 2.601 5.553 2.764zm-17.498-6.154c-.761-1.949-.269-3.726.887-5.644-1.767 1.492-2.085 3.82-.887 5.644zm-4.819-8.359c-1.391 1.327-1.669 3.243-.699 4.805-.486-1.703-.052-3.258.699-4.805zm1.738 6.479c-.706-1.756.111-3.261.808-4.985-1.5 1.482-1.802 3.426-.808 4.985z"></path><path clip-rule="evenodd" d="M66.761 61.803c.724 1.915.603 6.253-.262 9.434l-6.271-4.439c3.004-.681 5.112-2.274 6.533-4.995z"></path></g><!----></svg>