<svg width="399" height="399" xmlns="http://www.w3.org/2000/svg" class="iconLeft">
 <!---->
 <!---->
 <!---->
 <defs>
  <linearGradient y2="0%" x2="100%" y1="0%" x1="0%" id="b918639d-bd88-4758-9aaa-3afb885347b4" gradientTransform="rotate(25)">
   <stop stop-color=" rgb(1, 100, 139)" style="stop-color: rgb(1, 100, 139); stop-opacity: 1;" offset="0%"/>
   <stop stop-color=" rgb(91, 208, 164)" style="stop-color: rgb(91, 208, 164); stop-opacity: 1;" offset="100%"/>
  </linearGradient>
 </defs>
 <!---->
 <g>
  <title>background</title>
  <rect fill="none" id="canvas_background" height="401" width="401" y="-1" x="-1"/>
 </g>
 <g>
  <title>Layer 1</title>
  <g fill="url(#b918639d-bd88-4758-9aaa-3afb885347b4)" transform="matrix(4.512486504542803,0,0,3.7331361015578737,-508.42903990065486,-273.71082576362085) " id="85e521dc-86a6-46b4-a583-57336573f0e8">
   <path id="svg_2" d="m149.396731,105.857308c0.293,0.537 -0.19,0.955 0.121,1.494c1.173,-2.141 1.445,-4.529 2.424,-6.698c0.137,1.184 -0.03,2.398 0.385,3.659c2.606,-1.977 5.463,-3.48 8.146,-5.257c1.09,-0.721 1.699,-1.899 2.287,-3.038c2.071,-4.013 3.613,-8.264 5.537,-12.344c1.039,-2.204 2.15,-4.36 3.839,-6.208c-0.663,1.919 -1.345,3.832 -1.985,5.758c-1.185,3.559 -2.266,7.143 -2.862,10.861c-0.407,2.539 -0.13,5.014 0.46,7.479c0.069,0.29 0.16,0.574 0.283,1.005c-1.623,-0.346 -3.122,-0.575 -4.561,-1.007c-0.781,-0.234 -1.375,-0.079 -2.01,0.268c-5.092,2.78 -8.634,7.001 -11.282,12.075c-2.765,5.298 -3.261,10.772 -1.427,16.46c0.252,0.781 0.232,1.591 0.096,2.374c-0.211,1.214 -0.67,1.402 -2.723,1.266c-0.06,0.458 0.295,0.697 0.537,0.971c0.584,0.658 1.195,1.417 2.188,1.209c0.985,-0.206 1.115,-1.183 1.325,-1.972c0.794,-2.992 0.901,-6.061 0.914,-9.134c0.005,-1.267 0.001,-2.534 0.143,-3.855c1.241,1.159 2.015,2.6 2.687,4.094c2.082,4.635 3.375,9.53 4.555,14.445c0.571,2.381 2.051,3.992 3.743,5.604c0.146,-0.468 -0.266,-0.613 -0.401,-0.885c-0.159,-0.319 -0.414,-0.592 -0.569,-0.914c-0.295,-0.612 -0.672,-1.319 -0.164,-1.908c0.545,-0.631 1.289,-0.247 1.878,0.049c2.398,1.204 4.603,2.731 6.756,4.318c8.988,6.625 16.445,14.674 22.259,24.212c1.508,2.474 1.314,1.845 -0.828,3.065c-3.646,2.079 -7.603,2.238 -11.639,1.651c-3.001,-0.437 -5.977,-1.007 -8.901,-1.833c-1.052,-0.297 -2.019,-0.644 -2.833,-1.432c-0.56,-0.543 -1.286,-0.91 -2.369,-1.037c0.905,0.656 1.86,0.794 2.43,1.558c-5.948,1.112 -21.983,-6.289 -25.493,-11.786c0.987,-0.043 1.911,-0.216 2.824,-0.449c0.915,-0.233 1.818,-0.051 2.749,0.048c-1.025,-0.895 -2.224,-1.368 -3.584,-1.268c-6.025,0.445 -12.051,0.735 -18.068,-0.072c-1.999,-0.269 -3.945,-0.768 -6,-1.74c4.426,-1.377 8.53,-2.882 12.477,-4.79c1.853,-0.896 3.626,-1.886 4.698,-3.742c0.919,0.466 1.449,1.305 2.298,1.784c-1.18,-1.856 -2.99,-3.247 -3.931,-5.318c-0.24,1.279 0.229,2.601 -0.353,3.844c-2.013,-2.18 -2.73,-11.485 -1.188,-19.293c1.931,-9.786 6.815,-17.777 15.132,-23.571zm-4.114,26.77c-3.339,-6.651 -2.363,-13.1 0.732,-19.481c-0.188,0.06 -0.287,0.121 -0.34,0.209c-2.416,4.049 -3.813,8.397 -3.214,13.132c0.285,2.243 0.705,4.602 2.822,6.14zm29.901,37.493c4.174,3.498 13.055,4.806 16.021,2.334c-5.585,0.734 -10.751,-0.212 -16.021,-2.334zm-4.02,-2.352c-2.171,-1.574 -3.744,-4.299 -6.952,-3.583c0.251,0.524 1.171,0.2 1.399,0.819c1.001,2.707 3.348,2.601 5.553,2.764zm-17.498,-6.154c-0.761,-1.949 -0.269,-3.726 0.887,-5.644c-1.767,1.492 -2.085,3.82 -0.887,5.644zm-4.819,-8.359c-1.391,1.327 -1.669,3.243 -0.699,4.805c-0.486,-1.703 -0.052,-3.258 0.699,-4.805zm1.738,6.479c-0.706,-1.756 0.111,-3.261 0.808,-4.985c-1.5,1.482 -1.802,3.426 -0.808,4.985z" clip-rule="evenodd"/>
   <path id="svg_3" d="m173.250731,138.268308c0.724,1.915 0.603,6.253 -0.262,9.434l-6.271,-4.439c3.004,-0.681 5.112,-2.274 6.533,-4.995z" clip-rule="evenodd"/>
  </g>
 </g>
</svg>